<?xml version="1.0" standalone="no"?>
<!DOCTYPE svg PUBLIC "-//W3C//DTD SVG 20010904//EN"
 "http://www.w3.org/TR/2001/REC-SVG-20010904/DTD/svg10.dtd">
<svg version="1.0" xmlns="http://www.w3.org/2000/svg"
 width="500.000000pt" height="500.000000pt" viewBox="0 0 500.000000 500.000000"
 preserveAspectRatio="xMidYMid meet">
<metadata>
Created by potrace 1.14, written by Peter Selinger 2001-2017
</metadata>
<g transform="translate(0.000000,500.000000) scale(0.100000,-0.100000)"
fill="#000000" stroke="none">
<path d="M0 2500 l0 -2500 2500 0 2500 0 0 2500 0 2500 -2500 0 -2500 0 0
-2500z m940 1373 l91 -68 -90 -3 c-50 -1 -133 -1 -186 0 l-96 3 88 67 c48 37
91 67 96 67 4 1 48 -29 97 -66z m50 -1038 l450 -488 0 -156 0 -156 -139 -145
-140 -145 -1 260 -1 260 -454 480 -454 480 -1 71 0 70 143 185 142 186 3 -208
2 -207 450 -487z m313 710 c80 -105 137 -190 137 -203 0 -22 -2 -22 -145 -22
l-145 0 0 212 c0 117 4 208 8 203 5 -6 70 -91 145 -190z m447 -790 l0 -365
-50 0 -50 0 0 365 0 365 50 0 50 0 0 -365z m371 115 c61 -135 112 -246 113
-247 1 -2 51 110 112 247 l109 250 43 0 42 0 0 -365 0 -365 -45 0 -45 0 -2
245 -3 246 -85 -196 -85 -195 -41 0 -41 0 -91 203 -91 202 -1 -252 0 -253 -45
0 -45 0 0 366 0 365 46 -3 45 -3 110 -245z m974 231 c112 -52 156 -180 101
-298 -20 -42 -35 -58 -78 -82 -51 -30 -57 -31 -180 -31 l-128 0 0 -150 0 -150
-45 0 -45 0 0 365 0 365 168 0 c141 0 173 -3 207 -19z m325 -306 l0 -325 185
0 185 0 0 -40 0 -40 -230 0 -230 0 0 365 0 365 45 0 45 0 0 -325z m467 163
l81 -163 78 163 78 162 48 0 c26 0 48 -2 48 -5 0 -3 -47 -100 -105 -215 l-105
-210 0 -150 0 -150 -45 0 -45 0 0 150 0 150 -105 210 c-58 115 -105 212 -105
215 0 3 21 5 48 5 l47 0 82 -162z m-2169 -749 l29 -51 28 51 c16 28 34 51 42
51 18 0 18 0 -22 -70 -23 -41 -35 -75 -35 -101 0 -28 -4 -39 -15 -39 -11 0
-15 11 -15 42 0 28 -11 61 -35 105 -43 78 -22 89 23 12z m889 36 c47 -33 50
-128 6 -177 -30 -33 -85 -22 -108 23 -49 94 26 207 102 154z m743 -61 c0 -82
11 -114 38 -114 34 0 42 22 42 107 0 67 3 83 15 83 12 0 15 -15 15 -74 0 -91
-11 -123 -45 -132 -69 -17 -95 21 -95 137 0 55 3 69 15 69 12 0 15 -15 15 -76z
m917 50 c19 -26 16 -51 -9 -76 l-21 -21 21 -38 c26 -44 27 -49 8 -49 -7 0 -24
20 -37 45 -14 27 -31 45 -41 45 -15 0 -18 -9 -18 -45 0 -25 -4 -45 -10 -45 -6
0 -10 42 -10 106 l0 107 52 -5 c34 -4 56 -12 65 -24z m-3747 -246 l0 -263
-140 145 -139 145 -1 118 0 117 140 0 140 0 0 -262z m1993 -87 c25 -25 15 -41
-11 -18 -27 25 -112 23 -145 -3 -37 -29 -61 -109 -53 -174 12 -91 54 -135 129
-136 76 0 87 10 87 80 l0 60 -45 0 c-25 0 -45 5 -45 10 0 6 25 10 55 10 l55 0
0 -76 0 -75 -46 -21 c-73 -32 -137 -14 -188 55 -22 30 -33 130 -22 191 8 43
49 94 91 112 41 19 112 12 138 -15z m1692 5 c14 -9 23 -21 19 -27 -4 -6 -15
-4 -30 5 -13 9 -45 16 -72 16 -40 0 -53 -5 -74 -27 -35 -36 -48 -73 -48 -131
0 -113 45 -172 129 -172 33 0 56 6 74 20 14 11 28 16 31 11 9 -14 -41 -50 -79
-57 -148 -28 -242 186 -144 327 40 57 134 74 194 35z m-2309 -166 c35 -96 63
-178 64 -182 0 -5 -6 -8 -13 -8 -7 0 -22 28 -33 63 l-20 62 -76 3 -76 3 -22
-66 c-12 -36 -27 -65 -34 -65 -8 0 11 66 52 185 49 138 69 185 80 183 10 -2
38 -68 78 -178z m1174 170 c0 -6 -40 -10 -100 -10 l-100 0 0 -70 0 -70 85 0
c50 0 85 -4 85 -10 0 -6 -35 -10 -85 -10 l-85 0 0 -85 0 -85 100 0 c60 0 100
-4 100 -10 0 -6 -43 -10 -110 -10 l-110 0 0 185 0 185 110 0 c67 0 110 -4 110
-10z m459 -152 l86 -157 3 160 c1 95 6 159 12 159 6 0 10 -71 10 -185 0 -141
-3 -185 -12 -185 -7 0 -53 76 -103 168 l-90 167 -3 -167 c-1 -101 -6 -168 -12
-168 -6 0 -10 72 -10 186 0 165 2 185 16 182 9 -2 55 -73 103 -160z m1221 152
c0 -6 -38 -10 -95 -10 l-95 0 0 -70 0 -70 80 0 c47 0 80 -4 80 -10 0 -6 -33
-10 -80 -10 l-80 0 0 -85 0 -85 100 0 c60 0 100 -4 100 -10 0 -6 -45 -10 -115
-10 l-115 0 0 185 0 185 110 0 c67 0 110 -4 110 -10z m-3721 -234 c-2 -2 -44
-35 -94 -74 l-89 -69 -81 59 c-129 96 -135 88 80 88 103 0 186 -2 184 -4z"/>
<path d="M2810 2905 l0 -135 113 0 c95 0 117 3 145 20 42 26 66 81 59 134 -12
87 -64 114 -224 115 l-93 1 0 -135z"/>
<path d="M2530 2211 c-17 -33 -12 -99 10 -121 11 -11 24 -20 28 -20 41 0 67
91 38 135 -20 30 -61 34 -76 6z"/>
<path d="M4170 2194 c0 -34 1 -35 31 -32 63 6 67 68 4 68 -33 0 -35 -2 -35
-36z"/>
<path d="M1783 1800 l-30 -100 64 0 c57 0 64 2 59 18 -27 90 -57 182 -59 182
-2 0 -17 -45 -34 -100z"/>
</g>
</svg>
