<?xml version="1.0" encoding="utf-8"?>
<!-- Generator: Adobe Illustrator 22.0.1, SVG Export Plug-In . SVG Version: 6.00 Build 0)  -->
<svg version="1.1" id="Calque_1" xmlns="http://www.w3.org/2000/svg" xmlns:xlink="http://www.w3.org/1999/xlink" x="0px" y="0px"
	 viewBox="0 0 165.4 100" style="enable-background:new 0 0 165.4 100;" xml:space="preserve">
<style type="text/css">
	.st0{fill:#FF6666;}
	.st1{fill:#0099FF;}
</style>
<g>
	<g>
		<path d="M19.7,76.3l-2,12.4h-2l-1.2-7c0-0.3,0-0.6-0.1-1.1c0,0.3,0,0.6-0.1,1.1l-1.2,7h-2l-2-12.4h2.1l1.1,7.3
			c0,0.3,0,0.6,0.1,1.1c0-0.3,0-0.6,0.1-1.1l1.2-7.3h1.7l1.2,7.3c0,0.3,0,0.6,0.1,1.1c0-0.3,0-0.6,0.1-1.1l1.1-7.3H19.7z"/>
		<path d="M26.6,88.7h-2v-6.5l-1.9,0v6.5h-2V76.3h2V81c0.5-0.1,0.9-0.1,1.4-0.2c0.6-0.1,1.1-0.1,1.4-0.1c0.7,0,1.1,0.3,1.1,1V88.7z"
			/>
		<path d="M33.7,87.7c0,0.7-0.4,1-1.1,1h-3.4c-0.7,0-1.1-0.3-1.1-1v-6c0-0.7,0.4-1,1.1-1h3.4c0.7,0,1.1,0.3,1.1,1v2.9l-0.5,0.5h-3.2
			v2.2h1.9v-1.3h1.9V87.7z M31.8,84v-1.9h-1.9V84H31.8z"/>
		<path d="M41,88.7h-2v-6.5l-1.9,0v6.5h-2v-8h2V81c0.5-0.1,0.9-0.1,1.4-0.2c0.6-0.1,1-0.1,1.4-0.1c0.7,0,1.1,0.3,1.1,1V88.7z"/>
		<path d="M50,77.9h-1.5v2.8h1.3v1.5h-1.3v6.5h-2v-6.5h-0.9v-1.5h0.9v-3.4c0-0.7,0.4-1,1.1-1H50V77.9z"/>
		<path d="M56.6,88.7h-2v-0.3c-0.5,0.1-0.9,0.1-1.4,0.2c-0.6,0.1-1,0.1-1.4,0.1c-0.7,0-1.1-0.3-1.1-1v-7.1h2v6.5l1.9,0v-6.5h2V88.7z
			"/>
		<path d="M63.9,88.7h-2v-6.5l-1.9,0v6.5h-2v-8h2V81c0.5-0.1,0.9-0.1,1.4-0.2c0.6-0.1,1-0.1,1.4-0.1c0.7,0,1.1,0.3,1.1,1V88.7z"/>
		<path d="M71,79.6h-2v-1.9h2V79.6z M71,88.7h-2v-8h2V88.7z"/>
		<path d="M78,87.7c0,0.7-0.4,1-1.1,1h-3.4c-0.7,0-1.1-0.3-1.1-1V86h1.9v1.3h1.7v-1.3L73,84.5c-0.4-0.2-0.6-0.5-0.6-0.9v-1.9
			c0-0.7,0.4-1,1.1-1h3.3c0.7,0,1.1,0.3,1.1,1v1.6h-1.9v-1.2h-1.7v1.2l3,1.6c0.4,0.2,0.6,0.5,0.6,0.9V87.7z"/>
		<path d="M88.7,88.7h-1.9v-0.3c-0.5,0.1-0.9,0.1-1.4,0.2c-0.6,0.1-1,0.1-1.3,0.1c-0.7,0-1.1-0.3-1.1-1v-2.9c0-0.7,0.4-1,1.1-1h2.7
			v-1.8h-1.9v1.1h-1.8v-1.5c0-0.7,0.4-1,1.1-1h3.4c0.7,0,1.1,0.3,1.1,1V88.7z M86.8,87.3v-2.1h-1.9v2.2L86.8,87.3z"/>
		<path d="M99.7,87.1c0,0.6-0.3,1.1-0.8,1.4c-0.4,0.2-0.9,0.3-1.7,0.3c-0.2,0-0.4,0-0.7,0c-0.3,0-0.5,0-0.7,0v2.9h-2V80.7h2V81
			c0.5-0.1,0.9-0.1,1.4-0.2c0.6-0.1,1.1-0.1,1.4-0.1c0.7,0,1.1,0.3,1.1,1V87.1z M97.7,86.6v-4.4l-1.9,0v4.9h1.2
			C97.5,87.2,97.7,87,97.7,86.6z"/>
		<path d="M106.8,88.7h-1.9v-0.3c-0.5,0.1-0.9,0.1-1.4,0.2c-0.6,0.1-1,0.1-1.3,0.1c-0.7,0-1.1-0.3-1.1-1v-2.9c0-0.7,0.4-1,1.1-1h2.7
			v-1.8H103v1.1h-1.8v-1.5c0-0.7,0.4-1,1.1-1h3.4c0.7,0,1.1,0.3,1.1,1V88.7z M104.9,87.3v-2.1H103v2.2L104.9,87.3z"/>
		<path d="M113.8,84.1h-2v-1.8l-1.6,0v6.5h-2v-8h2V81c0.4-0.1,0.8-0.1,1.2-0.2c0.5-0.1,0.9-0.1,1.2-0.1c0.7,0,1.1,0.3,1.1,1V84.1z"
			/>
		<path d="M118.7,88.7h-2.2c-0.7,0-1.1-0.3-1.1-1v-5.5h-0.9v-1.5h0.9v-2.2h2v2.2h1.3v1.5h-1.3v4.9h1.3V88.7z"/>
		<path d="M129.2,87.7c0,0.7-0.4,1-1.1,1h-3.6c-0.7,0-1.1-0.3-1.1-1v-6c0-0.7,0.4-1,1.1-1h3.6c0.7,0,1.1,0.3,1.1,1V87.7z
			 M127.3,87.2v-5h-1.9v5H127.3z"/>
		<path d="M134.5,77.9h-1.5v2.8h1.3v1.5h-1.3v6.5h-2v-6.5h-0.9v-1.5h0.9v-3.4c0-0.7,0.4-1,1.1-1h2.3V77.9z"/>
		<path d="M141,88.7h-2V76.3h2V88.7z"/>
		<path d="M144.5,79.6h-2v-1.9h2V79.6z M144.5,88.7h-2v-8h2V88.7z"/>
		<path d="M149.8,77.9h-1.5v2.8h1.3v1.5h-1.3v6.5h-2v-6.5h-0.9v-1.5h0.9v-3.4c0-0.7,0.4-1,1.1-1h2.3V77.9z"/>
		<path d="M156.2,87.7c0,0.7-0.4,1-1.1,1h-3.4c-0.7,0-1.1-0.3-1.1-1v-6c0-0.7,0.4-1,1.1-1h3.4c0.7,0,1.1,0.3,1.1,1v2.9l-0.5,0.5
			h-3.2v2.2h1.9v-1.3h1.9V87.7z M154.3,84v-1.9h-1.9V84H154.3z"/>
	</g>
	<g>
		<polygon points="103.2,53.8 98.8,53.8 98.8,51 103.8,51 103.8,46 98.8,46 98.8,43.8 103.4,43.8 108.8,43.8 108.8,38.8 103.4,38.8 
			98.8,38.8 97.9,38.8 93.8,38.8 93.8,43.8 93.8,48.8 93.8,53.8 93.8,58.8 97.6,58.8 98.8,58.8 103.2,58.8 108.8,58.8 108.8,53.8 		
			"/>
		<polygon points="117.5,43.8 117.5,38.8 112.5,38.8 112.5,43.8 112.5,48.8 112.5,53.8 112.5,58.8 117.5,58.8 117.5,53.8 
			122.5,53.8 122.5,48.8 117.5,48.8 		"/>
		<polygon points="132.5,43.8 132.5,48.8 127.5,48.8 127.5,53.8 132.5,53.8 132.5,58.8 137.5,58.8 137.5,53.8 137.5,48.8 
			137.5,43.8 137.5,38.8 132.5,38.8 		"/>
		<rect x="122.5" y="43.8" width="5" height="5"/>
		<polygon points="74.9,43.8 74.9,38.8 69.9,38.8 69.9,43.8 69.9,48.8 69.9,53.8 69.9,58.8 74.9,58.8 74.9,53.8 74.9,48.8 
			79.9,48.8 79.9,43.8 		"/>
		<polygon points="84.9,43.8 84.9,48.8 79.9,48.8 79.9,53.8 84.9,53.8 84.9,58.8 89.9,58.8 89.9,53.8 89.9,48.8 89.9,43.8 
			89.9,38.8 84.9,38.8 		"/>
		<polygon points="151.2,53.8 146.2,53.8 141.2,53.8 141.2,58.8 146.2,58.8 151.2,58.8 156.2,58.8 156.2,53.8 156.2,48.8 
			151.2,48.8 		"/>
		<polygon points="151.2,38.8 146.2,38.8 141.2,38.8 141.2,43.8 141.2,48.8 146.2,48.8 146.2,43.8 151.2,43.8 156.2,43.8 
			156.2,38.8 		"/>
		<polygon points="132.1,24 127.7,24 127.7,21.2 132.7,21.2 132.7,16.2 127.7,16.2 127.7,14 132.4,14 137.7,14 137.7,9 132.4,9 
			127.7,9 127.1,9 122.7,9 122.7,14 122.7,19 122.7,24 122.7,29 126.5,29 127.7,29 132.1,29 137.8,29 137.8,24 		"/>
		<polygon points="89.4,14 89.4,19 89.4,24 89.4,29 94.4,29 94.4,24 94.4,19 94.4,14 94.4,9 89.4,9 		"/>
		<rect x="113.9" y="9" width="5" height="5"/>
		<rect x="98.8" y="24" width="5" height="5"/>
		<rect x="98.8" y="9" width="5" height="5"/>
		<polygon points="103.8,14 103.8,19 103.8,24 108.8,24 113.9,24 113.9,19 113.9,14 108.8,14 		"/>
		<rect x="113.9" y="24" width="5" height="5"/>
		<polygon points="151.2,24 146.2,24 146.2,19 146.2,14 146.2,9 141.2,9 141.2,14 141.2,19 141.2,24 141.2,29 146.2,29 151.2,29 
			156.2,29 156.2,24 		"/>
		<polygon points="74.9,9 69.9,9 69.9,14 69.9,19 69.9,24 69.9,29 74.9,29 74.9,24 74.9,19 79.9,19 84.9,19 84.9,14 84.9,9 79.9,9 
					"/>
	</g>
	<g>
		<g>
			<path class="st0" d="M57.6,27h-5.8v-5.8H46v-5.8h-5.8v5.8h-5.8v-5.8h-5.8V9.6h-5.8l-2.2,2.2h2.2v3.6h3.6v2.2h2.2v3.6h-5.8v0
				l-2.2,2.2h2.2V27H17v-5.8v-5.8h-5.8L9,17.6h2.2v3.6V27v5.8H17h5.8v5.8v5.8v5.8V56h5.8h3.6v2.2l2.2-2.2h0v-5.8h-5.8v-5.8h5.8h5.8
				H46v5.8h-5.8h0v0L38,52.4h2.2V56H46h3.6v2.2l2.2-2.2h0v-5.8v-5.8v-5.8v-5.8h5.8v5.8h3.6v2.2l2.2-2.2h0v0v-5.8V27H57.6z
				 M34.4,32.8h-5.8V27h5.8V32.8z M46,32.8h-5.8V27H46V32.8z"/>
			<polygon class="st0" points="40.2,15.4 38,17.6 40.2,17.6 			"/>
			<polygon class="st0" points="49.6,17.6 51.8,15.4 51.8,9.6 46,9.6 43.8,11.8 46,11.8 46,15.4 49.6,15.4 			"/>
		</g>
		<polygon class="st1" points="14.8,17.6 17,15.4 17,27 14.8,29.2 		"/>
		<polygon class="st1" points="49.6,35 51.8,32.8 51.8,56 49.6,58.2 		"/>
		<polygon class="st1" points="61.2,29.2 63.4,27 63.4,38.6 61.2,40.8 		"/>
		<polygon class="st1" points="26.4,11.8 28.6,9.6 28.6,15.4 26.4,17.6 		"/>
		<polygon class="st1" points="32.2,17.6 34.4,15.4 34.4,21.2 32.2,23.4 		"/>
		<polygon class="st1" points="26.4,29.2 28.6,27 28.6,32.8 26.4,35 		"/>
		<polygon class="st1" points="26.4,46.6 28.6,44.4 28.6,50.2 26.4,52.4 		"/>
		<polygon class="st1" points="32.2,52.4 34.4,50.2 34.4,56 32.2,58.2 		"/>
		<polygon class="st1" points="38,29.2 40.2,27 40.2,32.8 38,35 		"/>
		<polygon class="st1" points="49.6,23.4 51.8,21.2 51.8,27 49.6,29.2 		"/>
		<polygon class="st1" points="43.8,17.6 46,15.4 46,21.2 43.8,23.4 		"/>
		<polygon class="st1" points="49.6,11.8 51.8,9.6 51.8,15.4 49.6,17.6 		"/>
		<g>
			<path d="M55.4,29.2h-5.8v-5.8h-5.8v-5.8H38v5.8h-5.8v-5.8h-5.8v5.8h-5.8v5.8h-5.8v-5.8v-5.8H9v5.8v5.8V35h5.8h5.8v5.8v5.8v5.8
				v5.8h5.8h5.8v-5.8h-5.8v-5.8h5.8H38h5.8v5.8H38v5.8h5.8h5.8v-5.8v-5.8v-5.8V35h5.8v5.8h5.8V35v-5.8H55.4z M26.4,29.2h5.8V35h-5.8
				V29.2z M38,35v-5.8h5.8V35H38z"/>
			<rect x="43.8" y="11.8" width="5.8" height="5.8"/>
			<rect x="20.6" y="11.8" width="5.8" height="5.8"/>
		</g>
	</g>
</g>
</svg>
