<svg version="1.1" id="Calque_1" xmlns="http://www.w3.org/2000/svg" x="0" y="0" viewBox="0 0 133.4 47.9" xml:space="preserve"><style>.st0{fill:#f66}.st1{fill:#09f}</style><path d="M85.6 41.7h-3.8v-2.5h4.3v-4.3h-4.3V33h8.7v-4.4H77.4V46h13.1v-4.3zM98 33v-4.4h-4.4V46H98v-4.3h4.3v-4.4H98zM111 33v4.3h-4.3v4.4h4.3V46h4.4V28.6H111zM102.3 33h4.3v4.3h-4.3zM61 33v-4.4h-4.3V46H61v-8.7h4.4V33zM69.7 33v4.3h-4.3v4.4h4.3V46H74V28.6h-4.3zM127.2 41.7h-8.7V46h13.1v-8.7h-4.4zM127.2 28.6h-8.7v8.7h4.4V33h8.7v-4.4zM110.7 15.8h-3.8v-2.4h4.3V9h-4.3V7.1h8.7V2.8h-13.1v17.4h13.1v-4.4zM73.6 7.1v13.1H78V2.8h-4.4zM94.8 2.8h4.3v4.3h-4.3zM81.8 15.8h4.3v4.3h-4.3zM81.8 2.8h4.3v4.3h-4.3zM86.1 7.1v8.7h8.7V7.1h-4.3zM94.8 15.8h4.3v4.3h-4.3zM127.2 15.8h-4.3v-13h-4.4v17.4h13.1v-4.4zM61 2.8h-4.3v17.4H61v-8.7h8.7V2.8h-4.3z"/><g><path class="st0" d="M48.1 17.1h-5.7v-5.7h-5.7V5.7H31v5.7h-5.7V5.7h-5.7V0h-5.7l-2.2 2.2h2.2v3.5h3.5v2.2h2.2v3.5h-5.7l-2.2 2.2h2.2v3.5H8.2V5.7H2.5L.3 7.9h2.2V22.8h11.4v22.8h9.2v2.2l2.2-2.2v-5.7h-5.7v-5.7h17.1v5.7H31l-2.2 2.2H31v3.5h9.2v2.2l2.2-2.2V22.8h5.7v5.7h3.5v2.2l2.2-2.2V17.1h-5.7zm-22.8 5.7h-5.7v-5.7h5.7v5.7zm11.4 0H31v-5.7h5.7v5.7z"/><path class="st0" d="M31 5.7l-2.2 2.2H31zM40.2 7.9l2.2-2.2V0h-5.7l-2.2 2.2h2.2v3.5h3.5z"/><path class="st1" d="M6 7.9l2.2-2.2v11.4L6 19.3zM40.2 25l2.2-2.2-.1 22.8-2.1 2.2zM51.6 19.3l2.1-2.2v11.4l-2.1 2.2zM17.4 2.2L19.6 0v5.7l-2.2 2.2zM23.1 7.9l2.2-2.2v5.7l-2.2 2.2zM17.4 19.3l2.2-2.2v5.7L17.4 25zM17.4 36.3l2.2-2.2v5.7L17.4 42zM23.1 42.1l2.2-2.2v5.7l-2.2 2.2zM28.8 19.3l2.2-2.2v5.7L28.8 25zM40.2 13.6l2.2-2.2v5.7l-2.2 2.2zM34.5 7.9l2.2-2.2v5.7l-2.2 2.2zM40.2 2.2L42.4 0v5.7l-2.2 2.2z"/><g><path d="M45.9 19.3h-5.7v-5.7h-5.7V7.9h-5.7v5.7h-5.7V7.9h-5.7v5.7h-5.7v5.7H6V7.9H.3V25h11.4v22.8h11.4v-5.7h-5.7v-5.7h17.1v5.7h-5.7v5.7h11.4V25h5.7v5.7h5.7V19.3h-5.7zm-28.5 0h5.7V25h-5.7v-5.7zM28.8 25v-5.7h5.7V25h-5.7zM34.5 2.2h5.7v5.7h-5.7zM11.7 2.2h5.7v5.7h-5.7z"/></g></g></svg>