<?xml version="1.0" encoding="utf-8"?>
<!-- Generator: Adobe Illustrator 22.0.1, SVG Export Plug-In . SVG Version: 6.00 Build 0)  -->
<svg version="1.1" id="Calque_1" xmlns="http://www.w3.org/2000/svg" xmlns:xlink="http://www.w3.org/1999/xlink" x="0px" y="0px"
	 viewBox="0 0 393.1 393.1" style="enable-background:new 0 0 393.1 393.1;" xml:space="preserve">
<style type="text/css">
	.st0{fill:none;stroke:#000000;stroke-width:2;stroke-miterlimit:10;}
</style>
<circle class="st0" cx="206.5" cy="200" r="96.5"/>
<circle class="st0" cx="206.5" cy="200" r="76"/>
<line class="st0" x1="113.9" y1="103.5" x2="113.9" y2="296.5"/>
<line class="st0" x1="133.4" y1="123.5" x2="133.4" y2="276"/>
<line class="st0" x1="113.9" y1="103.5" x2="209.4" y2="103.5"/>
<line class="st0" x1="133.4" y1="124" x2="209.4" y2="124"/>
<line class="st0" x1="133.4" y1="276" x2="209.4" y2="276"/>
<line class="st0" x1="209" y1="296.5" x2="113.5" y2="296.5"/>
<path class="st0" d="M97,72.5c10.5,11.4-7.2,27.6-17.6,16.3L62.5,70.5c-65.7,69.7-67.1,179.4-1.1,250.8
	c66.4,71.9,176.9,78.9,251.7,17.6l-20.1-21.8c-10.5-11.4,7.2-27.6,17.6-16.3l20,21.7c65.7-69.7,67.1-179.4,1.1-250.8
	C265.3-0.2,154.8-7.2,80,54.1L97,72.5z"/>
</svg>
