<?xml version="1.0" encoding="utf-8"?>
<!-- Generator: Adobe Illustrator 22.0.1, SVG Export Plug-In . SVG Version: 6.00 Build 0)  -->
<svg version="1.1" id="Calque_1" xmlns="http://www.w3.org/2000/svg" xmlns:xlink="http://www.w3.org/1999/xlink" x="0px" y="0px"
	 viewBox="0 0 11.5 39.2" style="enable-background:new 0 0 11.5 39.2;" xml:space="preserve">
<style type="text/css">
	.st0{fill:#707070;}
</style>
<g id="Groupe_16" transform="translate(-1026 -970)">
	
		<rect x="1031.4" y="970" transform="matrix(1 -4.416804e-03 4.416804e-03 1 -4.3494 4.5674)" class="st0" width="1" height="34.1"/>
	<path class="st0" d="M1032,1009.2c-0.2,0-0.3-0.1-0.4-0.2l-5.5-7.5c-0.1-0.2-0.1-0.4,0-0.6c0.2-0.2,0.4-0.2,0.6-0.1l5.3,2.7
		l4.8-2.7c0.2-0.1,0.5-0.1,0.6,0.1c0.2,0.2,0.2,0.4,0,0.6l-5.1,7.5C1032.3,1009.1,1032.1,1009.2,1032,1009.2
		C1032,1009.2,1032,1009.2,1032,1009.2z M1028.2,1002.6l3.8,5.2l3.5-5.1l-3.2,1.8c-0.1,0.1-0.3,0.1-0.5,0L1028.2,1002.6z"/>
</g>
</svg>
