<svg xmlns="http://www.w3.org/2000/svg" width="24" height="24" fill-rule="evenodd" clip-rule="evenodd"><rect id="backgroundrect" width="100%" height="100%" x="0" y="0" fill="none" stroke="none"/><g class="currentLayer" style=""><title>Layer 1</title><path d="M2.863945573568344,24.13605308532715 h19 v-23.13038420677185 h-1 v22.124715328216553 h-18 v1.0056688785552979 zm17,-24.13605308532715 h-18 v22.124715328216553 h18 v-22.124715328216553 zm-1,1.0056688785552979 h-16 v20.113377571105957 h16 v-20.113377571105957 zm-2,16.090702056884766 h-12 v1.0056688785552979 h12 v-1.0056688785552979 zm0,-3.0170066356658936 h-12 v1.0056688785552979 h12 v-1.0056688785552979 zm0,-3.0170066356658936 h-12 v1.0056688785552979 h12 v-1.0056688785552979 zm-7.348,-3.884898877859116 l0.9480000000000002,0.3017006635665895 c-0.14500000000000005,0.5319988367557525 -0.3870000000000001,0.9272267060279846 -0.7250000000000002,1.1846779389381408 c-0.3380000000000002,0.25845690178871156 -0.7670000000000002,0.3871825182437898 -1.287,0.3871825182437898 c-0.6430000000000002,0 -1.171,-0.22124715328216557 -1.585,-0.6627357909679416 c-0.4140000000000001,-0.44148863768577584 -0.6210000000000002,-1.0458956336975098 -0.6210000000000002,-1.8122153191566468 c0,-0.8105691161155701 0.20800000000000005,-1.4401178340911864 0.6240000000000002,-1.8886461539268495 c0.4160000000000001,-0.44852831983566294 0.9630000000000002,-0.6727924797534947 1.6420000000000003,-0.6727924797534947 c0.5920000000000002,0 1.073,0.17599205374717716 1.443,0.5279761612415313 c0.22100000000000006,0.2081734578609467 0.3860000000000001,0.5078627836704254 0.4960000000000001,0.8970566396713259 l-0.9680000000000002,0.2323095109462738 c-0.057000000000000016,-0.25242288851737976 -0.17700000000000005,-0.45154532647132883 -0.3580000000000001,-0.5973673138618472 c-0.18200000000000005,-0.14682765626907354 -0.403,-0.219235815525055 -0.6630000000000003,-0.219235815525055 c-0.3590000000000001,0 -0.6500000000000002,0.12973128533363343 -0.8740000000000002,0.3881881871223451 c-0.22300000000000006,0.25946257066726686 -0.3350000000000002,0.6788264930248264 -0.3350000000000002,1.2590974359512328 c0,0.6164750225543978 0.11000000000000003,1.0549466536045073 0.3310000000000001,1.3154148931503296 c0.22000000000000006,0.26147390842437745 0.506,0.3922108626365663 0.8580000000000002,0.3922108626365663 c0.26,0 0.4840000000000001,-0.08246484804153445 0.6710000000000004,-0.24940588188171392 c0.18700000000000006,-0.1659353649616242 0.3220000000000001,-0.4274092733860017 0.403,-0.783416056394577 zm3.023,1.79009060382843 l-1.731,-4.869448709964753 h1.06 l1.226,3.6043172607421874 l1.186,-3.6043172607421874 h1.037 l-1.734,4.869448709964753 h-1.044 z" id="svg_1" class="" fill="#ffffff" fill-opacity="1"/></g></svg>