<?xml version="1.0" encoding="utf-8"?>
<!-- Generator: Adobe Illustrator 22.0.1, SVG Export Plug-In . SVG Version: 6.00 Build 0)  -->
<svg version="1.1" id="Calque_1" xmlns="http://www.w3.org/2000/svg" xmlns:xlink="http://www.w3.org/1999/xlink" x="0px" y="0px"
	 viewBox="0 0 44.6 44.6" style="enable-background:new 0 0 44.6 44.6;" xml:space="preserve">
<style type="text/css">
	.st0{fill:url(#SVGID_1_);}
</style>
<linearGradient id="SVGID_1_" gradientUnits="userSpaceOnUse" x1="-671.5919" y1="993.0255" x2="-666.7798" y2="993.0255" gradientTransform="matrix(44.6 0 0 -44.6 29909.5996 44311.2344)">
	<stop  offset="0" style="stop-color:#8FD4F1"/>
	<stop  offset="1" style="stop-color:#DFBFD1"/>
</linearGradient>
<path class="st0" d="M22.3,0C10,0,0,10,0,22.3s10,22.3,22.3,22.3s22.3-10,22.3-22.3l0,0C44.6,10,34.6,0,22.3,0z M27.9,14.9h-2.5
	c-1,0-1.2,0.4-1.2,1.4v2.3h3.7l-0.4,3.7h-3.3v13h-5.6v-13h-3.7v-3.7h3.7v-4.3c0-3.3,1.7-5,5.6-5h3.7L27.9,14.9z"/>
</svg>
