<?xml version="1.0" encoding="utf-8"?>
<!-- Generator: Adobe Illustrator 22.0.1, SVG Export Plug-In . SVG Version: 6.00 Build 0)  -->
<svg version="1.1" id="Calque_1" xmlns="http://www.w3.org/2000/svg" xmlns:xlink="http://www.w3.org/1999/xlink" x="0px" y="0px"
	 viewBox="0 0 44.6 44.6" style="enable-background:new 0 0 44.6 44.6;" xml:space="preserve">
<style type="text/css">
	.st0{fill:url(#SVGID_1_);}
</style>
<linearGradient id="SVGID_1_" gradientUnits="userSpaceOnUse" x1="-671.5919" y1="993.0255" x2="-666.7798" y2="993.0255" gradientTransform="matrix(44.6 0 0 -44.6 29909.5996 44311.2344)">
	<stop  offset="0" style="stop-color:#8FD4F1"/>
	<stop  offset="1" style="stop-color:#DFBFD1"/>
</linearGradient>
<path class="st0" d="M22.3,0C10,0,0,10,0,22.3s10,22.3,22.3,22.3s22.3-10,22.3-22.3l0,0C44.6,10,34.6,0,22.3,0z M18.6,29.7h-3.7
	V18.6h3.7V29.7z M16.7,16.9c-1.1,0-2.1-0.9-2.1-2c0-1.1,0.9-2.1,2-2.1c1.1,0,2.1,0.9,2.1,2c0,0,0,0,0,0C18.8,16,17.9,16.9,16.7,16.9
	C16.7,16.9,16.7,16.9,16.7,16.9z M31.6,29.7h-3.7v-5.3c0-3.5-3.7-3.2-3.7,0v5.3h-3.7V18.6h3.7v2c1.6-3,7.4-3.2,7.4,2.9L31.6,29.7z"
	/>
</svg>
