<?xml version="1.0" encoding="utf-8"?>
<!-- Generator: Adobe Illustrator 22.0.1, SVG Export Plug-In . SVG Version: 6.00 Build 0)  -->
<svg version="1.1" id="Calque_1" xmlns="http://www.w3.org/2000/svg" xmlns:xlink="http://www.w3.org/1999/xlink" x="0px" y="0px"
	 viewBox="0 0 44.6 44.6" style="enable-background:new 0 0 44.6 44.6;" xml:space="preserve">
<style type="text/css">
	.st0{fill:url(#SVGID_1_);}
</style>
<linearGradient id="SVGID_1_" gradientUnits="userSpaceOnUse" x1="-43.3337" y1="22.3114" x2="171.278" y2="22.3114" gradientTransform="matrix(1 -8.110547e-03 8.110547e-03 1 -0.2316 0.1707)">
	<stop  offset="0" style="stop-color:#8FD4F1"/>
	<stop  offset="1" style="stop-color:#DFBFD1"/>
</linearGradient>
<path class="st0" d="M21.3,18.6c-3.1,0.8-6.2,1.2-9.4,1.2c0.7-3,2.8-5.6,5.6-7C18.9,14.6,20.2,16.5,21.3,18.6z M23.1,22.1
	c-0.2-0.5-0.5-1-0.7-1.6c-3.5,1-7.1,1.5-10.8,1.4l0,0.3c0,2.5,0.9,4.9,2.5,6.9C16.1,25.8,19.3,23.4,23.1,22.1L23.1,22.1z M15.7,30.8
	c3,2.3,7,2.9,10.5,1.5c-0.5-2.8-1.3-5.5-2.3-8.1C20.5,25.3,17.5,27.7,15.7,30.8L15.7,30.8z M28.9,13.8c-2.6-2-6-2.7-9.2-1.9
	c1.4,1.9,2.7,3.8,3.8,5.9C25.6,17,27.4,15.6,28.9,13.8z M44.6,22.3c0,12.3-10,22.3-22.3,22.3C10,44.6,0,34.6,0,22.3
	C0,10,10,0,22.3,0C34.6,0,44.6,10,44.6,22.3L44.6,22.3z M35.3,22.3c0-7.2-5.8-13-13-13s-13,5.8-13,13c0,7.2,5.8,13,13,13
	C29.5,35.3,35.3,29.5,35.3,22.3C35.3,22.3,35.3,22.3,35.3,22.3z M24.5,19.8c0.3,0.6,0.6,1.2,0.8,1.8c2.6-0.4,5.2-0.4,7.7,0.1
	c-0.1-2.3-1-4.5-2.5-6.3C28.9,17.3,26.8,18.8,24.5,19.8z M26.2,23.8c0.9,2.4,1.6,4.9,2.1,7.5c2.5-1.7,4.2-4.3,4.6-7.3
	C30.7,23.6,28.4,23.5,26.2,23.8z"/>
</svg>
