<?xml version="1.0" encoding="utf-8"?>
<!-- Generator: Adobe Illustrator 22.0.1, SVG Export Plug-In . SVG Version: 6.00 Build 0)  -->
<svg version="1.1" id="Calque_1" xmlns="http://www.w3.org/2000/svg" xmlns:xlink="http://www.w3.org/1999/xlink" x="0px" y="0px"
	 viewBox="0 0 24 24" style="enable-background:new 0 0 24 24;" xml:space="preserve">
<style type="text/css">
	.st0{fill:#FF928F;}
</style>
<g>
	<path class="st0" d="M10,10c-1.1,0-2,0.9-2,2s0.9,2,2,2s2-0.9,2-2l3.4-1.9c1-0.6,2.7-0.3,3.7,0.2l4.9-3l-3.2-1.6L21,2.2L16.1,5
		c-0.1,1.1-0.7,2.7-1.7,3.3l-3.4,2C10.7,10.1,10.4,10,10,10z M15.3,8.6c0.6-0.3,1.3-2.2,1.3-2.8l3.5-2.2L20,6.1l2.6,1.2l-3.5,2.1
		c-0.6-0.3-3-0.6-3.5-0.3l-4.4,2.6c0.2,0.7-0.4,1.5-1.2,1.5c-0.6,0-1.2-0.6-1.2-1.2c0-0.6,0.6-1.2,1.2-1.2c0.4,0,0.7,0.2,0.9,0.3
		L15.3,8.6z"/>
	<path class="st0" d="M10,7.1c0.6,0,1.3,0.1,2,0.2l1-0.5C12.1,6.3,11.1,6,10,6c-3.3,0-6,2.7-6,6s2.7,6,6,6s6-2.7,6-6l-1.2,1
		c-0.4,1.8-2.2,4-4.8,4c-2.2,0-5-2.2-5-5C5,9.7,7.1,7.2,10,7.1z"/>
	<path class="st0" d="M10,20.9C4.6,21,1,16.4,1,12s3.2-9.1,9-9.1c2,0,3.3,0.6,3.3,0.6L14.2,3c-1-0.4-2.7-0.9-4.2-0.9
		c-5.5,0-9.9,4.5-9.9,9.9c0,5.5,4.5,9.9,9.9,9.9c5.2,0,9.7-3.8,9.9-9.1C19.3,13,19,13.1,19,13.1S17.7,20.4,10,20.9z"/>
</g>
</svg>
