<?xml version="1.0" encoding="utf-8"?>
<!-- Generator: Adobe Illustrator 22.0.1, SVG Export Plug-In . SVG Version: 6.00 Build 0)  -->
<svg version="1.1" id="Calque_1" xmlns="http://www.w3.org/2000/svg" xmlns:xlink="http://www.w3.org/1999/xlink" x="0px" y="0px"
	 viewBox="0 0 24 24" style="enable-background:new 0 0 24 24;" xml:space="preserve">
<style type="text/css">
	.st0{fill:#FF928F;}
</style>
<path class="st0" d="M12,8.7c-1.8,0-3.3,1.5-3.3,3.3s1.5,3.3,3.3,3.3s3.3-1.5,3.3-3.3S13.8,8.7,12,8.7 M12,16.3
	c-2.4,0-4.3-1.9-4.3-4.3S9.6,7.7,12,7.7s4.3,1.9,4.3,4.3S14.4,16.3,12,16.3 M10.8,23h2.4c0.4-1.1,0.7-2.5,2.1-3
	c1.5-0.6,2.7,0.2,3.6,0.7l1.7-1.7c-0.5-1-1.3-2.2-0.7-3.6c0.6-1.4,1.7-1.7,3-2.1v-2.4c-1.2-0.4-2.5-0.7-3-2.1
	c-0.6-1.4,0.1-2.4,0.7-3.6l-1.7-1.7c-1.1,0.5-2.2,1.3-3.6,0.7c-1.4-0.6-1.7-1.7-2.1-3h-2.4c-0.4,1.2-0.7,2.5-2.1,3
	C8.3,4.2,8,4.3,7.6,4.3c-0.8,0-1.5-0.4-2.6-0.9L3.4,5.1C4,6.2,4.6,7.3,4,8.7c-0.6,1.4-1.7,1.7-3,2.1v2.4c1.2,0.4,2.5,0.7,3,2.1
	c0.6,1.4-0.1,2.4-0.7,3.6l1.7,1.7c1.4-0.7,2.4-1.2,3.6-0.7C10.1,20.5,10.4,21.7,10.8,23 M13.9,24h-3.8c-0.7-1.9-0.8-2.7-1.8-3.1
	c-1-0.4-1.7,0.1-3.5,1l-2.7-2.7c0.9-1.8,1.4-2.5,1-3.5c-0.4-1-1.2-1.1-3.1-1.8v-3.8c1.9-0.7,2.7-0.8,3.1-1.8s-0.1-1.6-1-3.5l2.7-2.7
	c1.7,0.8,2.5,1.4,3.5,1c1-0.4,1.1-1.2,1.8-3.1h3.8c0.7,1.9,0.8,2.7,1.8,3.1c1,0.4,1.7-0.1,3.5-1l2.7,2.7c-0.9,1.8-1.4,2.5-1,3.5
	c0.4,1,1.2,1.1,3.1,1.8v3.8c-1.9,0.7-2.7,0.8-3.1,1.8c-0.4,1,0,1.6,1,3.5l-2.7,2.7c-1.7-0.8-2.5-1.4-3.5-1
	C14.7,21.3,14.6,22,13.9,24"/>
</svg>
