<?xml version="1.0" encoding="utf-8"?>
<!-- Generator: Adobe Illustrator 22.0.1, SVG Export Plug-In . SVG Version: 6.00 Build 0)  -->
<svg version="1.1" id="Calque_1" xmlns="http://www.w3.org/2000/svg" xmlns:xlink="http://www.w3.org/1999/xlink" x="0px" y="0px"
	 viewBox="0 0 24 24" style="enable-background:new 0 0 24 24;" xml:space="preserve">
<style type="text/css">
	.st0{fill:#FF928F;}
</style>
<g>
	<path class="st0" d="M12.8,4.8c-0.5-1.3-1.4-2-2.4,0C10,5.5,7.9,8.7,3,11.1c-1.5,0.8-2.5,2.1-2.5,3.7c0,2.6,2.6,4.3,5.1,3.5L8,21.2
		c0.1,0.2,0.7,0.8,1.9,0.4l1.4-0.5c1.2-0.4,1.3-1.2,0.8-2l-1.7-2.5c1.3-0.2,4.1,0.4,4.7,0.5c1.5,0.3,1.5,0.6,2,0.4
		c0.9-0.3,0.2-1.3,0-2.3L12.8,4.8z M8.8,15.9l2.5,4L9,20.7l-3.2-3.5l-1,0.3c-1,0.3-2.4-0.1-3.2-1.8c-0.4-0.9-0.2-2.6,1-3.2
		c5.7-2.9,8.4-6.5,9.1-8l4.8,11.9C13.5,15.7,9.4,15.7,8.8,15.9z"/>
	<path class="st0" d="M16.3,5l-0.4,0.8c0,0,2.3,0.7,3.1,2.8c1,2.4,0,4.3,0,4.3l0.8,0.4c0.7-1.4,0.8-3.3,0.1-5
		C19.3,7,18.1,5.7,16.3,5z"/>
	<path class="st0" d="M17.6,2.3l-0.4,0.9c0,0,3.5,1.3,4.7,4.3c1.4,3.5-0.2,6.5-0.2,6.5l1,0.5c1-2,1.2-4.8,0.1-7.3
		C21.9,5.2,20.2,3.3,17.6,2.3z"/>
</g>
</svg>
