<?xml version="1.0" encoding="utf-8"?>
<!-- Generator: Adobe Illustrator 22.0.1, SVG Export Plug-In . SVG Version: 6.00 Build 0)  -->
<svg version="1.1" id="Calque_1" xmlns="http://www.w3.org/2000/svg" xmlns:xlink="http://www.w3.org/1999/xlink" x="0px" y="0px"
	 viewBox="0 0 24 24" style="enable-background:new 0 0 24 24;" xml:space="preserve">
<style type="text/css">
	.st0{fill:#FF928F;}
</style>
<path class="st0" d="M12,0c6.6,0,12,5.4,12,12c0,6.6-5.4,12-12,12C5.4,24,0,18.6,0,12C0,5.4,5.4,0,12,0C12,0,12,0,12,0z M15.7,16
	H8.3c0.6,4.3,2.2,7,3.7,7C13.5,23,15.1,20.3,15.7,16 M22.2,16h-5.5c-0.4,3-1.3,5.4-2.5,6.8C17.9,22,20.9,19.4,22.2,16 M7.3,16H1.8
	c1.3,3.4,4.3,6,8,6.8C8.6,21.4,7.7,19,7.3,16 M7.2,9H1.4c-0.3,1.2-0.7,3.4,0,6h5.7C7,13.2,6.9,11.1,7.2,9 M15.8,9H8.2
	c-0.2,1.8-0.2,3.9,0,6h7.7C16,13.2,16.1,11.1,15.8,9 M22.6,9h-5.7c0.1,0.6,0.3,3,0,6h5.7C23.3,12.4,22.9,10.2,22.6,9 M9.8,1.2
	C6.1,2,3.1,4.6,1.8,8h5.5C7.7,5,8.6,2.6,9.8,1.2 M15.7,8c-0.6-4.3-2.2-7-3.7-7c-1.5,0-3.1,2.7-3.7,7H15.7z M14.2,1.2
	C15.4,2.6,16.3,5,16.7,8h5.5C20.9,4.6,17.9,2,14.2,1.2"/>
</svg>
