<?xml version="1.0" encoding="utf-8"?>
<!-- Generator: Adobe Illustrator 22.0.1, SVG Export Plug-In . SVG Version: 6.00 Build 0)  -->
<svg version="1.1" id="Calque_1" xmlns="http://www.w3.org/2000/svg" xmlns:xlink="http://www.w3.org/1999/xlink" x="0px" y="0px"
	 viewBox="0 0 364.2 194.2" style="enable-background:new 0 0 364.2 194.2;" xml:space="preserve">
<g>
	<g>
		<g>
			<path d="M119.5,68.2h4V121h-4V68.2z"/>
			<path d="M125,122.5h-7V66.7h7V122.5z M121,119.5h1V69.7h-1V119.5z"/>
		</g>
		<g>
			<path d="M180.2,77.5l-16,36.1h-4l-16.3-36.1V121h-4V68.2h4l18.4,40.7l18-40.7h4V121h-4V77.5z"/>
			<path d="M185.7,122.5h-7v-38l-13.5,30.5h-5.9l-13.9-30.7v38.1h-7V66.7h6.5l17.4,38.5l17-38.5h6.5V122.5z M181.7,119.5h1V69.7
				h-1.5l-18.7,42.4h0.7l18.5-41.7V119.5z M141.3,119.5h1v-49l18.8,41.6h0.9l-19.2-42.4h-1.5V119.5z"/>
		</g>
		<g>
			<path d="M219.8,98.6h-15.4V121h-4V68.2h19.4c9.1,0,15.9,5.5,15.9,15.2C235.8,93,229,98.6,219.8,98.6z M219.4,71.7h-14.9V95h14.9
				c7.3,0,12.4-3.7,12.4-11.6S226.7,71.7,219.4,71.7z"/>
			<path d="M206,122.5h-7V66.7h20.9c10.4,0,17.4,6.7,17.4,16.7s-7,16.7-17.4,16.7H206V122.5z M202,119.5h1V97.1h16.9
				c8.8,0,14.4-5.4,14.4-13.7s-5.7-13.7-14.4-13.7H202V119.5z M219.4,96.5H203V70.2h16.4c8.7,0,13.9,4.9,13.9,13.1
				C233.3,91.6,228.1,96.5,219.4,96.5z M206,93.5h13.4c5,0,10.9-1.8,10.9-10.1c0-8.4-5.9-10.1-10.9-10.1H206V93.5z"/>
		</g>
		<g>
			<path d="M247.3,68.2h4v49.3h28v3.6h-32V68.2z"/>
			<path d="M280.8,122.5h-35V66.7h7v49.3h28V122.5z M248.8,119.5h29v-0.6h-28V69.7h-1V119.5z"/>
		</g>
		<g>
			<path d="M295.9,121h-4V99.1l-15.6-30.9h4.3l13.4,26.7l13.1-26.7h4.3l-15.6,30.9V121z"/>
			<path d="M297.4,122.5h-7v-23l-16.5-32.8h7.7l12.5,24.8l12.2-24.8h7.7l-16.5,32.8V122.5z M293.4,119.5h1V98.8l14.6-29.1h-0.9
				l-14,28.6l-14.4-28.6h-0.9l14.6,29.1V119.5z"/>
		</g>
	</g>
	<polygon points="101.5,125.5 101.5,149.7 80.3,172.2 80.3,132 11.5,58.9 11.5,47.9 33.2,19.5 33.2,51.6 	"/>
	<polygon points="101.5,51.5 101.5,47.9 79.8,19.5 79.8,51.5 	"/>
	<polygon points="10.5,132.8 10.5,150.7 31.7,173.2 31.7,133 31.8,132.8 	"/>
	<polygon points="42,15.2 71,15.2 56.5,4.2 	"/>
	<polygon points="71,176.5 42,176.9 56.6,187.7 	"/>
	<g>
		<path d="M129.5,157.9h2l10.1,28.6h-2.1l-5.7-16.8c-1.2-3.4-2.2-6.4-3.2-9.9h-0.2c-1,3.5-2,6.5-3.2,9.9l-5.8,16.8h-2L129.5,157.9z
			 M124.1,175h12.8v1.7h-12.8V175z"/>
		<path d="M165.3,172.2c0-9.1,5-14.7,12.3-14.7c3.7,0,6.1,1.8,7.6,3.4l-1.2,1.3c-1.4-1.6-3.4-2.9-6.4-2.9c-6.3,0-10.2,5-10.2,12.9
			c0,7.9,3.7,13.1,9.9,13.1c2.5,0,4.9-0.8,6.2-2.2v-8.9H177v-1.7h8.5v11.3c-1.7,1.9-4.6,3.2-8.3,3.2
			C170.1,187,165.3,181.2,165.3,172.2z"/>
		<path d="M208.9,157.9h16.9v1.7h-14.9v10.8h12.5v1.7h-12.5v12.6h15.3v1.7h-17.3V157.9z"/>
		<path d="M251.7,157.9h2.1l11.1,20.2l3,5.6h0.1c-0.1-2.8-0.3-5.5-0.3-8.3v-17.5h1.9v28.6h-2.1l-11.1-20.2l-3-5.6h-0.1
			c0.1,2.8,0.3,5.4,0.3,8.1v17.7h-1.9V157.9z"/>
		<path d="M294.3,172.2c0-9.1,5-14.7,12.3-14.7c3.3,0,5.9,1.6,7.4,3.4l-1.2,1.3c-1.5-1.7-3.6-2.9-6.2-2.9c-6.3,0-10.2,5-10.2,12.9
			c0,7.9,3.9,13.1,10,13.1c2.9,0,5.1-1.2,7.2-3.5l1.2,1.2c-2.2,2.5-4.8,4.1-8.5,4.1C299.3,187,294.3,181.2,294.3,172.2z"/>
		<path d="M337.1,157.9H354v1.7h-14.9v10.8h12.5v1.7h-12.5v12.6h15.3v1.7h-17.3V157.9z"/>
	</g>
	<g>
		<g>
			<g>
				<path d="M124.5,142.4l-5.1-9.3h1.1l2.6,4.9c0.7,1.1,1.2,2.3,1.9,3.5h0.1c0.7-1.2,1.3-2.3,1.9-3.5l2.5-4.9h1l-5.1,9.3v5.4h-1
					V142.4z"/>
				<path d="M126.1,148.3h-2v-5.8l-5.4-10h2.2l2.8,5.1c0.3,0.6,0.7,1.2,1,1.8c0.2,0.3,0.3,0.6,0.5,1c0.5-0.9,1-1.9,1.5-2.8l2.7-5.1
					h2.2l-5.4,10V148.3z M125,147.3L125,147.3l0-5.1l0.2-0.4l-0.5,0l0.2,0.4V147.3z"/>
			</g>
			<g>
				<path d="M182.1,140.4c0-4.7,2.3-7.6,5.5-7.6c3.2,0,5.5,2.9,5.5,7.6c0,4.7-2.3,7.7-5.5,7.7C184.4,148.1,182.1,145.1,182.1,140.4z
					 M192.1,140.4c0-4.1-1.8-6.7-4.4-6.7c-2.6,0-4.4,2.6-4.4,6.7c0,4.1,1.8,6.8,4.4,6.8C190.3,147.2,192.1,144.5,192.1,140.4z"/>
				<path d="M187.6,148.6c-3.6,0-6-3.3-6-8.2c0-4.8,2.4-8.1,6-8.1c3.6,0,6,3.3,6,8.1C193.7,145.3,191.2,148.6,187.6,148.6z
					 M187.6,134.2c-2.4,0-3.9,2.4-3.9,6.2c0,3.8,1.5,6.3,3.9,6.3c2.4,0,3.9-2.5,3.9-6.3C191.6,136.7,190,134.2,187.6,134.2z
					 M184,135.3c-0.9,1.2-1.4,3-1.4,5.1c0,2.7,0.8,4.8,2.1,6c-1.2-1.3-2-3.4-2-6C182.7,138.3,183.2,136.5,184,135.3z M191.3,135.3
					c0.8,1.2,1.3,3,1.3,5.1c0,2.6-0.7,4.8-2,6c1.3-1.2,2.1-3.4,2.1-6C192.7,138.3,192.2,136.5,191.3,135.3z"/>
			</g>
			<g>
				<path d="M245.5,142.3v-9.2h1v9.1c0,3.8,1.7,5,3.7,5c2,0,3.8-1.2,3.8-5v-9.1h1v9.2c0,4.5-2.3,5.8-4.7,5.8
					C247.8,148.1,245.5,146.8,245.5,142.3z"/>
				<path d="M250.2,148.6c-2,0-5.2-0.8-5.2-6.3v-9.7h2v9.6c0,3,1.1,4.5,3.2,4.5c2.2,0,3.3-1.5,3.3-4.5v-9.6h2v9.7
					C255.5,147.8,252.2,148.6,250.2,148.6z M246,133.6v8.7c0,2.6,0.8,4.3,2.4,4.9c-1.2-0.6-2.3-2-2.3-5.1L246,133.6z M254.4,143.7
					c-0.3,1.9-1.1,2.9-2,3.5C253.5,146.5,254.2,145.4,254.4,143.7z"/>
			</g>
			<g>
				<path d="M308.1,133h4.2c2.9,0,4.9,1.1,4.9,3.9c0,2.7-1.9,4.1-4.9,4.1h-3.2v6.8h-1V133z M312.1,140.2c2.6,0,4.1-1,4.1-3.2
					c0-2.2-1.5-3-4.1-3h-2.9v6.2H312.1z M313.1,140.4l4.4,7.4h-1.2l-4.2-7.1L313.1,140.4z"/>
				<path d="M318.4,148.3H316l-4-6.8h-2.3v6.8h-2v-15.8h4.7c4.4,0,5.4,2.4,5.4,4.4c0,2.3-1.3,3.8-3.5,4.4L318.4,148.3z M316.6,147.3
					L316.6,147.3l-3.4-5.8c0,0,0,0,0,0L316.6,147.3z M308.6,147.3L308.6,147.3v-13.8V147.3z M309.7,139.7h2.4c2.4,0,3.6-0.9,3.6-2.7
					c0-1.3-0.4-2.5-3.6-2.5h-2.4V139.7z M315.4,134.2c0.7,0.5,1.2,1.4,1.2,2.7c0,0.7-0.2,1.7-0.9,2.5c0.6-0.6,0.9-1.4,0.9-2.5
					C316.7,136,316.5,134.9,315.4,134.2z"/>
			</g>
		</g>
	</g>
</g>
</svg>
