<?xml version="1.0"?>
<svg width="640" height="480" xmlns="http://www.w3.org/2000/svg" xmlns:svg="http://www.w3.org/2000/svg" xmlns:xlink="http://www.w3.org/1999/xlink">
 <!-- Created with SVG-edit - https://github.com/SVG-Edit/svgedit-->
 <defs>
  <symbol id="svg_4" viewBox="0 0 24 24" xmlns="http://www.w3.org/2000/svg">
   <path d="m12,0c-6.627,0 -12,5.373 -12,12s5.373,12 12,12s12,-5.373 12,-12s-5.373,-12 -12,-12zm6.066,9.645c0.183,4.04 -2.83,8.544 -8.164,8.544c-1.622,0 -3.131,-0.476 -4.402,-1.291c1.524,0.18 3.045,-0.244 4.252,-1.189c-1.256,-0.023 -2.317,-0.854 -2.684,-1.995c0.451,0.086 0.895,0.061 1.298,-0.049c-1.381,-0.278 -2.335,-1.522 -2.304,-2.853c0.388,0.215 0.83,0.344 1.301,0.359c-1.279,-0.855 -1.641,-2.544 -0.889,-3.835c1.416,1.738 3.533,2.881 5.92,3.001c-0.419,-1.796 0.944,-3.527 2.799,-3.527c0.825,0 1.572,0.349 2.096,0.907c0.654,-0.128 1.27,-0.368 1.824,-0.697c-0.215,0.671 -0.67,1.233 -1.263,1.589c0.581,-0.07 1.135,-0.224 1.649,-0.453c-0.384,0.578 -0.87,1.084 -1.433,1.489z" id="svg_1"/>
  </symbol>
  <symbol id="svg_7" viewBox="0 0 364.2 194.2" x="0px" xmlns="http://www.w3.org/2000/svg" xmlns:xlink="http://www.w3.org/1999/xlink" y="0px">
   <g>
    <g>
     <g>
      <path d="m119.5,68.2l4,0l0,52.8l-4,0l0,-52.8z"/>
      <path d="m125,122.5l-7,0l0,-55.8l7,0l0,55.8zm-4,-3l1,0l0,-49.8l-1,0l0,49.8z"/>
     </g>
     <g>
      <path d="m180.2,77.5l-16,36.1l-4,0l-16.3,-36.1l0,43.5l-4,0l0,-52.8l4,0l18.4,40.7l18,-40.7l4,0l0,52.8l-4,0l0,-43.5l-0.1,0z"/>
      <path d="m185.7,122.5l-7,0l0,-38l-13.5,30.5l-5.9,0l-13.9,-30.7l0,38.1l-7,0l0,-55.7l6.5,0l17.4,38.5l17,-38.5l6.5,0l0,55.8l-0.1,0zm-4,-3l1,0l0,-49.8l-1.5,0l-18.7,42.4l0.7,0l18.5,-41.7l0,49.1zm-40.4,0l1,0l0,-49l18.8,41.6l0.9,0l-19.2,-42.4l-1.5,0l0,49.8z"/>
     </g>
     <g>
      <path d="m219.8,98.6l-15.4,0l0,22.4l-4,0l0,-52.8l19.4,0c9.1,0 15.9,5.5 15.9,15.2c0.1,9.6 -6.7,15.2 -15.9,15.2zm-0.4,-26.9l-14.9,0l0,23.3l14.9,0c7.3,0 12.4,-3.7 12.4,-11.6s-5.1,-11.7 -12.4,-11.7z"/>
      <path d="m206,122.5l-7,0l0,-55.8l20.9,0c10.4,0 17.4,6.7 17.4,16.7s-7,16.7 -17.4,16.7l-13.9,0l0,22.4zm-4,-3l1,0l0,-22.4l16.9,0c8.8,0 14.4,-5.4 14.4,-13.7s-5.7,-13.7 -14.4,-13.7l-17.9,0l0,49.8zm17.4,-23l-16.4,0l0,-26.3l16.4,0c8.7,0 13.9,4.9 13.9,13.1c0,8.3 -5.2,13.2 -13.9,13.2zm-13.4,-3l13.4,0c5,0 10.9,-1.8 10.9,-10.1c0,-8.4 -5.9,-10.1 -10.9,-10.1l-13.4,0l0,20.2z"/>
     </g>
     <g>
      <path d="m247.3,68.2l4,0l0,49.3l28,0l0,3.6l-32,0l0,-52.9z"/>
      <path d="m280.8,122.5l-35,0l0,-55.8l7,0l0,49.3l28,0l0,6.5zm-32,-3l29,0l0,-0.6l-28,0l0,-49.2l-1,0l0,49.8z"/>
     </g>
     <g>
      <path d="m295.9,121l-4,0l0,-21.9l-15.6,-30.9l4.3,0l13.4,26.7l13.1,-26.7l4.3,0l-15.6,30.9l0,21.9l0.1,0z"/>
      <path d="m297.4,122.5l-7,0l0,-23l-16.5,-32.8l7.7,0l12.5,24.8l12.2,-24.8l7.7,0l-16.5,32.8l0,23l-0.1,0zm-4,-3l1,0l0,-20.7l14.6,-29.1l-0.9,0l-14,28.6l-14.4,-28.6l-0.9,0l14.6,29.1l0,20.7z"/>
     </g>
    </g>
    <polygon points="101.5,125.5 101.5,149.7 80.3,172.2 80.3,132 11.5,58.9 11.5,47.9 33.2,19.5 33.2,51.6  "/>
    <polygon points="101.5,51.5 101.5,47.9 79.8,19.5 79.8,51.5  "/>
    <polygon points="10.5,132.8 10.5,150.7 31.7,173.2 31.7,133 31.8,132.8  "/>
    <polygon points="42,15.2 71,15.2 56.5,4.2  "/>
    <polygon points="71,176.5 42,176.9 56.6,187.7  "/>
    <g>
     <path d="m129.5,157.9l2,0l10.1,28.6l-2.1,0l-5.7,-16.8c-1.2,-3.4 -2.2,-6.4 -3.2,-9.9l-0.2,0c-1,3.5 -2,6.5 -3.2,9.9l-5.8,16.8l-2,0l10.1,-28.6zm-5.4,17.1l12.8,0l0,1.7l-12.8,0l0,-1.7z"/>
     <path d="m165.3,172.2c0,-9.1 5,-14.7 12.3,-14.7c3.7,0 6.1,1.8 7.6,3.4l-1.2,1.3c-1.4,-1.6 -3.4,-2.9 -6.4,-2.9c-6.3,0 -10.2,5 -10.2,12.9c0,7.9 3.7,13.1 9.9,13.1c2.5,0 4.9,-0.8 6.2,-2.2l0,-8.9l-6.5,0l0,-1.7l8.5,0l0,11.3c-1.7,1.9 -4.6,3.2 -8.3,3.2c-7.1,0 -11.9,-5.8 -11.9,-14.8z"/>
     <path d="m208.9,157.9l16.9,0l0,1.7l-14.9,0l0,10.8l12.5,0l0,1.7l-12.5,0l0,12.6l15.3,0l0,1.7l-17.3,0l0,-28.5z"/>
     <path d="m251.7,157.9l2.1,0l11.1,20.2l3,5.6l0.1,0c-0.1,-2.8 -0.3,-5.5 -0.3,-8.3l0,-17.5l1.9,0l0,28.6l-2.1,0l-11.1,-20.2l-3,-5.6l-0.1,0c0.1,2.8 0.3,5.4 0.3,8.1l0,17.7l-1.9,0l0,-28.6z"/>
     <path d="m294.3,172.2c0,-9.1 5,-14.7 12.3,-14.7c3.3,0 5.9,1.6 7.4,3.4l-1.2,1.3c-1.5,-1.7 -3.6,-2.9 -6.2,-2.9c-6.3,0 -10.2,5 -10.2,12.9c0,7.9 3.9,13.1 10,13.1c2.9,0 5.1,-1.2 7.2,-3.5l1.2,1.2c-2.2,2.5 -4.8,4.1 -8.5,4.1c-7,-0.1 -12,-5.9 -12,-14.9z"/>
     <path d="m337.1,157.9l16.9,0l0,1.7l-14.9,0l0,10.8l12.5,0l0,1.7l-12.5,0l0,12.6l15.3,0l0,1.7l-17.3,0l0,-28.5z"/>
    </g>
    <g>
     <g>
      <g>
       <path d="m124.5,142.4l-5.1,-9.3l1.1,0l2.6,4.9c0.7,1.1 1.2,2.3 1.9,3.5l0.1,0c0.7,-1.2 1.3,-2.3 1.9,-3.5l2.5,-4.9l1,0l-5.1,9.3l0,5.4l-1,0l0,-5.4l0.1,0z"/>
       <path d="m126.1,148.3l-2,0l0,-5.8l-5.4,-10l2.2,0l2.8,5.1c0.3,0.6 0.7,1.2 1,1.8c0.2,0.3 0.3,0.6 0.5,1c0.5,-0.9 1,-1.9 1.5,-2.8l2.7,-5.1l2.2,0l-5.4,10l0,5.8l-0.1,0zm-1.1,-1l0,0l0,-5.1l0.2,-0.4l-0.5,0l0.2,0.4l0,5.1l0.1,0z"/>
      </g>
      <g>
       <path d="m182.1,140.4c0,-4.7 2.3,-7.6 5.5,-7.6c3.2,0 5.5,2.9 5.5,7.6c0,4.7 -2.3,7.7 -5.5,7.7c-3.2,0 -5.5,-3 -5.5,-7.7zm10,0c0,-4.1 -1.8,-6.7 -4.4,-6.7c-2.6,0 -4.4,2.6 -4.4,6.7c0,4.1 1.8,6.8 4.4,6.8c2.6,0 4.4,-2.7 4.4,-6.8z"/>
       <path d="m187.6,148.6c-3.6,0 -6,-3.3 -6,-8.2c0,-4.8 2.4,-8.1 6,-8.1c3.6,0 6,3.3 6,8.1c0.1,4.9 -2.4,8.2 -6,8.2zm0,-14.4c-2.4,0 -3.9,2.4 -3.9,6.2c0,3.8 1.5,6.3 3.9,6.3c2.4,0 3.9,-2.5 3.9,-6.3c0.1,-3.7 -1.5,-6.2 -3.9,-6.2zm-3.6,1.1c-0.9,1.2 -1.4,3 -1.4,5.1c0,2.7 0.8,4.8 2.1,6c-1.2,-1.3 -2,-3.4 -2,-6c0,-2.1 0.5,-3.9 1.3,-5.1zm7.3,0c0.8,1.2 1.3,3 1.3,5.1c0,2.6 -0.7,4.8 -2,6c1.3,-1.2 2.1,-3.4 2.1,-6c0,-2.1 -0.5,-3.9 -1.4,-5.1z"/>
      </g>
      <g>
       <path d="m245.5,142.3l0,-9.2l1,0l0,9.1c0,3.8 1.7,5 3.7,5c2,0 3.8,-1.2 3.8,-5l0,-9.1l1,0l0,9.2c0,4.5 -2.3,5.8 -4.7,5.8c-2.5,0 -4.8,-1.3 -4.8,-5.8z"/>
       <path d="m250.2,148.6c-2,0 -5.2,-0.8 -5.2,-6.3l0,-9.7l2,0l0,9.6c0,3 1.1,4.5 3.2,4.5c2.2,0 3.3,-1.5 3.3,-4.5l0,-9.6l2,0l0,9.7c0,5.5 -3.3,6.3 -5.3,6.3zm-4.2,-15l0,8.7c0,2.6 0.8,4.3 2.4,4.9c-1.2,-0.6 -2.3,-2 -2.3,-5.1l-0.1,-8.5zm8.4,10.1c-0.3,1.9 -1.1,2.9 -2,3.5c1.1,-0.7 1.8,-1.8 2,-3.5z"/>
      </g>
      <g>
       <path d="m308.1,133l4.2,0c2.9,0 4.9,1.1 4.9,3.9c0,2.7 -1.9,4.1 -4.9,4.1l-3.2,0l0,6.8l-1,0l0,-14.8zm4,7.2c2.6,0 4.1,-1 4.1,-3.2c0,-2.2 -1.5,-3 -4.1,-3l-2.9,0l0,6.2l2.9,0zm1,0.2l4.4,7.4l-1.2,0l-4.2,-7.1l1,-0.3z"/>
       <path d="m318.4,148.3l-2.4,0l-4,-6.8l-2.3,0l0,6.8l-2,0l0,-15.8l4.7,0c4.4,0 5.4,2.4 5.4,4.4c0,2.3 -1.3,3.8 -3.5,4.4l4.1,7zm-1.8,-1l0,0l-3.4,-5.8c0,0 0,0 0,0l3.4,5.8zm-8,0l0,0l0,-13.8l0,13.8zm1.1,-7.6l2.4,0c2.4,0 3.6,-0.9 3.6,-2.7c0,-1.3 -0.4,-2.5 -3.6,-2.5l-2.4,0l0,5.2zm5.7,-5.5c0.7,0.5 1.2,1.4 1.2,2.7c0,0.7 -0.2,1.7 -0.9,2.5c0.6,-0.6 0.9,-1.4 0.9,-2.5c0.1,-0.9 -0.1,-2 -1.2,-2.7z"/>
      </g>
     </g>
    </g>
   </g>
  </symbol>
 </defs>
 <g class="layer">
  <title>Layer 1</title>
  <g id="svg_3"/>
  <use fill="#ffffff" id="svg_5" transform="matrix(19.8354 0 0 19.8354 1.97531 1.97531)" x="4.03319" xlink:href="#svg_4" y="-0.00001"/>
  <g id="svg_6"/>
  <use fill="#ffffff" id="svg_8" transform="matrix(1.05033 0 0 1.05033 -16.8983 -45.5186)" x="0.140618" xlink:href="#svg_7" y="33.858713"/>
  <g id="svg_9"/>
 </g>
</svg>