<?xml version="1.0" encoding="utf-8"?>
<!-- Generator: Adobe Illustrator 22.0.1, SVG Export Plug-In . SVG Version: 6.00 Build 0)  -->
<svg version="1.1" id="Calque_1" xmlns="http://www.w3.org/2000/svg" xmlns:xlink="http://www.w3.org/1999/xlink" x="0px" y="0px"
	 viewBox="0 0 381.3 239.3" style="enable-background:new 0 0 381.3 239.3;" xml:space="preserve">
<style type="text/css">
	.st0{fill:#24427C;}
	.st1{fill:#FF928F;}
	.st2{fill:#FFFFFF;}
</style>
<path class="st0" d="M313.8,187.5H128.3c-8.6,0-15.6-7-15.6-15.6v-19c0-8.6,7-15.6,15.6-15.6h185.5c8.6,0,15.6,7,15.6,15.6v19
	C329.3,180.5,322.4,187.5,313.8,187.5z"/>
<g>
	<rect x="117.7" y="67.4" class="st0" width="7.4" height="61.9"/>
	<polygon class="st0" points="166.6,110.6 147.2,67.4 140.3,67.4 140.3,129.3 147.7,129.3 147.7,86.2 163.3,121 169.7,121 185,86.3 
		185,129.3 192.4,129.3 192.4,67.4 185.5,67.4 	"/>
	<path class="st0" d="M230.5,67.4h-23v61.9h7.4v-25h15.5c11.5,0,19.2-7.4,19.2-18.5S241.9,67.4,230.5,67.4z M242.2,85.8
		c0,10-7.7,11.5-12.2,11.5h-15v-23h15C234.5,74.4,242.2,75.8,242.2,85.8z"/>
	<polygon class="st0" points="266.8,67.4 259.4,67.4 259.4,129.3 297.9,129.3 297.9,122.3 266.8,122.3 	"/>
	<polygon class="st0" points="326.4,67.4 312.7,95.3 298.8,67.4 290.7,67.4 308.9,103.7 308.9,129.3 316.3,129.3 316.3,103.7 
		334.5,67.4 	"/>
</g>
<path class="st1" d="M100.4,139.5v23.8c0,1-0.4,2-1.1,2.8l-15.4,16.4c-2.5,2.7-7,0.9-7-2.8v-33c0-1-0.4-2-1.1-2.8l-74-79.2
	C1.1,64,0.7,63,0.7,62v-9.2c0-0.9,0.3-1.7,0.8-2.5l15.9-20.9c2.4-3.1,7.3-1.4,7.3,2.5V54c0,1,0.4,2,1.1,2.7l73.6,80.1
	C100,137.5,100.4,138.5,100.4,139.5z"/>
<path class="st1" d="M100.4,54.5v-2.9c0-0.2-0.1-0.4-0.2-0.5L77.8,21.8c-0.5-0.6-1.5-0.3-1.5,0.5v32.2c0,0.5,0.4,0.9,0.9,0.9h22.4
	C100,55.4,100.4,55,100.4,54.5z"/>
<path class="st1" d="M0.7,146.9v17.3c0,0.5,0.2,0.9,0.5,1.3L21,186.6c1.2,1.2,3.2,0.4,3.2-1.3l0.1-38.4c0-1-0.8-1.9-1.9-1.9H2.6
	C1.5,145,0.7,145.8,0.7,146.9z"/>
<path class="st1" d="M37.5,14.9h26c1,0,1.4-1.2,0.6-1.8l-13-9.9c-0.4-0.3-0.9-0.3-1.2,0l-13,9.9C36.1,13.7,36.6,14.9,37.5,14.9z"/>
<path class="st1" d="M62.6,194.8l-24.1,0.3c-1.3,0-1.8,1.7-0.8,2.4l12.2,9c0.5,0.4,1.2,0.4,1.6,0l11.9-9.3
	C64.5,196.5,63.9,194.8,62.6,194.8z"/>
<polygon points="131.1,205.7 131,205.8 131.9,205.8 131.9,205.7 "/>
<path d="M125.1,222.7l0.4-1.1L125.1,222.7z"/>
<polygon class="st0" points="133.3,203.7 129.6,203.7 117.8,237.5 122.2,237.5 125.9,226.6 137,226.6 140.7,237.5 145.2,237.5 "/>
<polygon class="st0" points="266.8,205.7 266.8,206.7 268.2,206.7 267.6,205.7 "/>
<g>
	<path class="st0" d="M183.7,207.1c2.5,0,4.6,0.9,6.3,2.9l0.7,0.8l2.7-3l-0.6-0.7c-2.6-2.8-5.6-4.1-9.1-4.1
		c-8.9,0-14.7,6.8-14.7,17.4c0,10.5,5.7,17.6,14.2,17.6c4.1,0,7.6-1.4,9.9-3.9l0.3-0.3v-14H182v3.9h7.3v8.5
		c-1.3,1.1-3.5,1.8-5.9,1.8c-6.3,0-10-5.1-10-13.6C173.4,212.2,177.3,207.1,183.7,207.1z"/>
	<polygon class="st0" points="221.6,221.5 235.5,221.5 235.5,217.6 221.6,217.6 221.6,207.6 238.1,207.6 238.1,203.7 217.4,203.7 
		217.4,237.5 238.6,237.5 238.6,233.6 221.6,233.6 	"/>
	<path class="st0" d="M282.7,224.2c0,1.7,0.1,3.5,0.1,5.2l-14.1-25.7h-3.9v33.8h4.1v-20.7c0-1.7-0.1-3.4-0.1-5l14.1,25.7h3.9v-33.8
		h-4.1V224.2z M266.8,206.7v-1h0.8l0.6,1H266.8z"/>
	<path class="st0" d="M333.6,230.5c-2.2,2.5-4.4,3.6-7.2,3.6c-6.3,0-10.1-5.2-10.1-13.6c0-8.3,3.9-13.4,10.3-13.4
		c2.4,0,4.5,1,6.1,2.9l0.7,0.8l2.7-3l-0.6-0.7c-2.3-2.6-5.6-4.1-9-4.1c-8.7,0-14.6,7-14.6,17.4c0,10.5,5.7,17.6,14.3,17.6
		c4.1,0,7.3-1.6,10.2-4.9l0.6-0.7l-2.7-2.8L333.6,230.5z"/>
	<polygon class="st0" points="363.7,233.6 363.7,221.5 377.6,221.5 377.6,217.6 363.7,217.6 363.7,207.6 380.2,207.6 380.2,203.7 
		359.5,203.7 359.5,237.5 380.7,237.5 380.7,233.6 	"/>
</g>
<g>
	<g>
		<path class="st2" d="M153,160.5c-0.4,0.8-0.9,1.6-1.4,2.5c-0.1-0.2-0.2-0.3-0.3-0.5c-0.4-0.7-0.7-1.3-1.1-2l-3.1-5.9h-3.3
			l6.2,11.5v6.7h3v-6.7l6.2-11.5H156L153,160.5z"/>
		<path class="st2" d="M154.1,173.8h-5v-7.4l-6.9-12.7h5.6l3.4,6.4c0.2,0.3,0.3,0.6,0.5,0.8c0.2-0.3,0.3-0.6,0.5-0.9l3.3-6.4h5.5
			l-6.9,12.7L154.1,173.8L154.1,173.8z M151.1,171.8h1v-5.9l5.5-10.2h-0.9l-2.8,5.3c-0.4,0.8-0.9,1.6-1.4,2.5l-0.9,1.6l-1.1-2.1
			c-0.4-0.7-0.7-1.3-1.1-2l-2.9-5.4h-1l5.5,10.2L151.1,171.8L151.1,171.8z"/>
	</g>
	<g>
		<path class="st2" d="M198.7,154.4c-4.2,0-7,3.7-7,9.3s2.8,9.4,7,9.4s7-3.8,7-9.4S202.9,154.4,198.7,154.4z M198.7,170.2
			c-2.4,0-4-2.6-4-6.5s1.6-6.4,4-6.4s4,2.5,4,6.4C202.7,167.6,201.1,170.2,198.7,170.2z"/>
		<path class="st2" d="M198.7,174.1c-4.8,0-8-4.2-8-10.4s3.2-10.3,8-10.3s8,4.1,8,10.3C206.7,169.9,203.5,174.1,198.7,174.1z
			 M198.7,155.4c-3.6,0-6,3.3-6,8.3s2.4,8.4,6,8.4s6-3.4,6-8.4S202.3,155.4,198.7,155.4z M198.7,171.2c-3,0-5-3-5-7.5s1.9-7.4,5-7.4
			s5,2.9,5,7.4S201.7,171.2,198.7,171.2z M198.7,158.3c-1.8,0-3,2.1-3,5.4c0,3.4,1.2,5.5,3,5.5s3-2.2,3-5.5S200.5,158.3,198.7,158.3
			z"/>
	</g>
	<g>
		<path class="st2" d="M249.1,165.5c0,4.6-2.4,4.6-3.2,4.6s-3.2,0-3.2-4.6v-11h-3v11.1c0,6.4,3.9,7.3,6.2,7.3s6.1-0.9,6.1-7.3v-11.1
			h-2.9L249.1,165.5L249.1,165.5z"/>
		<path class="st2" d="M245.9,173.9c-2.2,0-7.2-0.8-7.2-8.3v-12.1h5v12c0,3.6,1.5,3.6,2.2,3.6s2.2,0,2.2-3.6v-12h4.9v12.1
			C253,173.1,248,173.9,245.9,173.9z M240.7,155.5v10.1c0,4.2,1.7,6.3,5.2,6.3c3.4,0,5.1-2.1,5.1-6.3v-10.1h-0.9v10
			c0,2.5-0.7,5.6-4.2,5.6c-3.4,0-4.2-3-4.2-5.6v-10H240.7z"/>
	</g>
	<g>
		<path class="st2" d="M294.8,164.9c2.3-0.7,3.7-2.5,3.7-5c0-2-0.8-5.2-6.3-5.2h-5.6v18.1h3v-7.5h2l4.4,7.5h3.5L294.8,164.9z
			 M291.9,157.5c3.3,0,3.6,1.2,3.6,2.4s-0.4,2.6-3.6,2.6h-2.3v-5H291.9z"/>
		<path class="st2" d="M301.2,173.8h-5.8l-4.4-7.5h-0.4v7.5h-5v-20.1h6.6c6.6,0,7.3,4.4,7.3,6.2c0,2.5-1.2,4.4-3.2,5.5L301.2,173.8z
			 M296.6,171.8h1.1l-4.4-7.4l1.2-0.4c1.9-0.6,3-2,3-4.1c0-2.8-1.8-4.2-5.3-4.2h-4.6v16.1h1v-7.5h3.6L296.6,171.8z M291.9,163.5
			h-3.3v-7h3.3c3.1,0,4.6,1.1,4.6,3.4C296.4,162.3,294.9,163.5,291.9,163.5z M290.6,161.5h1.3c2.6,0,2.6-0.9,2.6-1.6
			c0-0.7,0-1.4-2.6-1.4h-1.3V161.5z"/>
	</g>
</g>
<polygon class="st2" points="131.4,210.2 135.7,222.9 127.3,222.9 "/>
</svg>
