<?xml version="1.0" encoding="utf-8"?>
<!-- Generator: Adobe Illustrator 22.0.1, SVG Export Plug-In . SVG Version: 6.00 Build 0)  -->
<svg version="1.1" id="Calque_1" xmlns="http://www.w3.org/2000/svg" xmlns:xlink="http://www.w3.org/1999/xlink" x="0px" y="0px"
	 viewBox="0 0 381.3 239.3" style="enable-background:new 0 0 381.3 239.3;" xml:space="preserve">
<style type="text/css">
	.st0{fill:#FFFFFF;}
</style>
<g>
	<rect x="117.7" y="67.4" class="st0" width="7.4" height="61.9"/>
	<polygon class="st0" points="166.6,110.6 147.2,67.4 140.3,67.4 140.3,129.3 147.7,129.3 147.7,86.2 163.3,121 169.7,121 185,86.3 
		185,129.3 192.4,129.3 192.4,67.4 185.5,67.4 	"/>
	<path class="st0" d="M230.5,67.4h-23v61.9h7.4v-25h15.5c11.5,0,19.2-7.4,19.2-18.5S241.9,67.4,230.5,67.4z M242.2,85.8
		c0,10-7.7,11.5-12.2,11.5h-15v-23h15C234.5,74.4,242.2,75.8,242.2,85.8z"/>
	<polygon class="st0" points="266.8,67.4 259.4,67.4 259.4,129.3 297.9,129.3 297.9,122.3 266.8,122.3 	"/>
	<polygon class="st0" points="326.4,67.4 312.7,95.3 298.8,67.4 290.7,67.4 308.9,103.7 308.9,129.3 316.3,129.3 316.3,103.7 
		334.5,67.4 	"/>
</g>
<polygon class="st0" points="100.4,137.9 100.4,164.9 76.9,190 76.9,145.1 0.7,63.6 0.7,51.4 24.7,19.8 24.7,55.5 "/>
<polygon class="st0" points="100.4,55.4 100.4,51.4 76.3,19.8 76.3,55.4 "/>
<polygon class="st0" points="0.7,145 0.7,164.9 24.2,190 24.2,145.1 24.3,145 "/>
<polygon class="st0" points="34.5,14.9 66.6,14.9 50.5,2.7 "/>
<polygon class="st0" points="66.6,194.8 34.5,195.2 50.7,207.2 "/>
<path class="st0" d="M134.1,218.1c-0.9-2.6-1.8-5.3-2.7-8.1c-0.9,2.8-1.7,5.4-2.7,8.1l-1.6,4.6h8.4L134.1,218.1z"/>
<polygon class="st0" points="131.1,205.7 131,205.8 131.9,205.8 131.9,205.7 "/>
<polygon class="st0" points="120.6,235.5 120.8,235.5 123.8,226.6 123.8,226.6 "/>
<polygon class="st0" points="125.1,222.7 125.5,221.6 125.1,222.7 "/>
<polygon class="st0" points="137.9,222.7 136.3,218.1 137.8,222.7 "/>
<path class="st0" d="M135.1,217.8c-1.3-3.8-2.4-7.1-3.5-11h-0.2c-1.1,3.9-2.2,7.2-3.5,11l-2,5.9h11.2L135.1,217.8z M128.8,218.1
	c0.9-2.8,1.8-5.3,2.7-8.1c0.9,2.9,1.8,5.5,2.7,8.1l1.6,4.6h-8.4L128.8,218.1z"/>
<polygon class="st0" points="124.3,223.7 124.3,225.6 125.2,225.6 125.8,223.7 "/>
<path class="st0" d="M133.3,203.7h-3.7l-11.8,33.8h4.4l3.7-10.9H137l3.7,10.9h4.5L133.3,203.7z M137.9,222.7L137.9,222.7l-1.6-4.6
	L137.9,222.7z M131.9,205.8H131l0-0.1h0.8L131.9,205.8z M125.5,221.6l-0.4,1.1h0L125.5,221.6z M120.6,235.5l3.1-8.9h0l-3,8.9H120.6z
	 M124.3,225.6v-1.9h1.5l2-5.9c1.3-3.8,2.4-7.1,3.5-11h0.2c1.1,3.9,2.2,7.2,3.5,11l2,5.9h-11.2l-0.6,1.9H124.3z"/>
<polygon class="st0" points="266.8,205.7 266.8,206.7 268.2,206.7 267.6,205.7 "/>
<g>
	<path class="st0" d="M183.7,207.1c2.5,0,4.6,0.9,6.3,2.9l0.7,0.8l2.7-3l-0.6-0.7c-2.6-2.8-5.6-4.1-9.1-4.1
		c-8.9,0-14.7,6.8-14.7,17.4c0,10.5,5.7,17.6,14.2,17.6c4.1,0,7.6-1.4,9.9-3.9l0.3-0.3v-14H182v3.9h7.3v8.5
		c-1.3,1.1-3.5,1.8-5.9,1.8c-6.3,0-10-5.1-10-13.6C173.4,212.2,177.3,207.1,183.7,207.1z"/>
	<polygon class="st0" points="221.6,221.5 235.5,221.5 235.5,217.6 221.6,217.6 221.6,207.6 238.1,207.6 238.1,203.7 217.4,203.7 
		217.4,237.5 238.6,237.5 238.6,233.6 221.6,233.6 	"/>
	<path class="st0" d="M282.7,224.2c0,1.7,0.1,3.5,0.1,5.2l-14.1-25.7h-3.9v33.8h4.1v-20.7c0-1.7-0.1-3.4-0.1-5l14.1,25.7h3.9v-33.8
		h-4.1V224.2z M266.8,206.7v-1h0.8l0.6,1H266.8z"/>
	<path class="st0" d="M333.6,230.5c-2.2,2.5-4.4,3.6-7.2,3.6c-6.3,0-10.1-5.2-10.1-13.6c0-8.3,3.9-13.4,10.3-13.4
		c2.4,0,4.5,1,6.1,2.9l0.7,0.8l2.7-3l-0.6-0.7c-2.3-2.6-5.6-4.1-9-4.1c-8.7,0-14.6,7-14.6,17.4c0,10.5,5.7,17.6,14.3,17.6
		c4.1,0,7.3-1.6,10.2-4.9l0.6-0.7l-2.7-2.8L333.6,230.5z"/>
	<polygon class="st0" points="363.7,233.6 363.7,221.5 377.6,221.5 377.6,217.6 363.7,217.6 363.7,207.6 380.2,207.6 380.2,203.7 
		359.5,203.7 359.5,237.5 380.7,237.5 380.7,233.6 	"/>
</g>
<path class="st0" d="M190.7,156.5c-2.4,0-3.9,2.5-3.9,6.4c0,4,1.5,6.5,3.9,6.5c2.4,0,3.9-2.6,3.9-6.5
	C194.6,159.1,193.1,156.5,190.7,156.5z"/>
<path class="st0" d="M302.8,156.7h-2.2v5h2.2c3.1,0,3.5-1.4,3.5-2.6C306.3,157.9,306,156.7,302.8,156.7z"/>
<path class="st0" d="M111.8,137.9v50.2h216.7v-50.2H111.8z M135.9,165.5v6.8h-3.1v-6.8l-6.3-11.7h3.5l3.2,6c0.4,0.7,0.7,1.3,1.1,2
	c0.1,0.1,0.1,0.2,0.2,0.4c0.4-0.8,0.9-1.6,1.3-2.4l3.1-5.9h3.4L135.9,165.5z M190.7,172.6c-4.3,0-7.1-3.9-7.1-9.6
	c0-5.7,2.9-9.5,7.1-9.5c4.3,0,7.1,3.8,7.1,9.5C197.8,168.7,195,172.6,190.7,172.6z M253.4,165.1c0,6.7-4.4,7.5-6.2,7.5
	c-1.9,0-6.3-0.7-6.3-7.5v-11.3h3.2V165c0,4.5,2.3,4.5,3.1,4.5c0.8,0,3.2,0,3.2-4.5v-11.2h3.1V165.1z M306.9,172.2l-4.4-7.6h-1.9v7.6
	h-3.2v-18.5h5.7c5.6,0,6.4,3.4,6.4,5.4c0,2.5-1.3,4.4-3.6,5.1l4.7,8H306.9z"/>
</svg>
